<svg xmlns="http://www.w3.org/2000/svg" version="1.1" xmlns:xlink="http://www.w3.org/1999/xlink" xmlns:svgjs="http://svgjs.dev/svgjs" width="1000" height="282" viewBox="0 0 1000 282"><g transform="matrix(1,0,0,1,-0.6060606060606233,-0.35961182114587587)"><svg viewBox="0 0 396 112" data-background-color="#dedede" preserveAspectRatio="xMidYMid meet" height="282" width="1000" xmlns="http://www.w3.org/2000/svg" xmlns:xlink="http://www.w3.org/1999/xlink"><g id="tight-bounds" transform="matrix(1,0,0,1,0.2400000000000091,0.14282455307920827)"><svg viewBox="0 0 395.52 111.71401705921376" height="111.71401705921376" width="395.52"><g><svg viewBox="0 0 596.7584070138932 168.55349631214426" height="111.71401705921376" width="395.52"><g transform="matrix(1,0,0,1,201.23840701389332,49.664048536300264)"><svg viewBox="0 0 395.52 69.22539923954373" height="69.22539923954373" width="395.52"><g id="textblocktransform"><svg viewBox="0 0 395.52 69.22539923954373" height="69.22539923954373" width="395.52" id="textblock"><g><svg viewBox="0 0 395.52 69.22539923954373" height="69.22539923954373" width="395.52"><g transform="matrix(1,0,0,1,0,0)"><svg width="395.52" viewBox="3 -36.43000030517578 210.3800048828125 36.83000183105469" height="69.22539923954373" data-palette-color="#374151"><path d="M15.85-12.18L11.45-12.18 11.45 0 3 0 3-36.43 15.85-36.43Q19.7-36.43 22.46-35.51 25.23-34.6 27.01-33 28.8-31.4 29.65-29.23 30.5-27.05 30.5-24.53L30.5-24.53Q30.5-21.8 29.63-19.53 28.75-17.25 26.95-15.63 25.15-14 22.39-13.09 19.63-12.18 15.85-12.18L15.85-12.18ZM11.45-30.1L11.45-18.55 15.85-18.55Q19.15-18.55 20.6-20.13 22.05-21.7 22.05-24.53L22.05-24.53Q22.05-25.78 21.68-26.8 21.3-27.83 20.54-28.56 19.78-29.3 18.61-29.7 17.45-30.1 15.85-30.1L15.85-30.1 11.45-30.1ZM34.4-25.93L42.15-25.93 42.15-9.47Q42.15-7.55 43.02-6.5 43.9-5.45 45.6-5.45L45.6-5.45Q46.87-5.45 47.98-5.98 49.1-6.5 50.15-7.45L50.15-7.45 50.15-25.93 57.9-25.93 57.9 0 53.1 0Q51.65 0 51.2-1.3L51.2-1.3 50.72-2.8Q49.97-2.08 49.17-1.49 48.37-0.9 47.46-0.49 46.55-0.08 45.5 0.16 44.45 0.4 43.2 0.4L43.2 0.4Q41.07 0.4 39.44-0.34 37.8-1.07 36.67-2.4 35.55-3.73 34.97-5.53 34.4-7.33 34.4-9.47L34.4-9.47 34.4-25.93ZM75-26.33L75-26.33Q77.57-26.33 79.71-25.53 81.84-24.73 83.38-23.2 84.92-21.68 85.78-19.46 86.65-17.25 86.65-14.45L86.65-14.45Q86.65-13.58 86.57-13.03 86.5-12.48 86.3-12.15 86.09-11.83 85.76-11.7 85.42-11.58 84.9-11.58L84.9-11.58 69.95-11.58Q70.32-8.33 71.92-6.86 73.52-5.4 76.05-5.4L76.05-5.4Q77.4-5.4 78.37-5.73 79.34-6.05 80.11-6.45 80.87-6.85 81.51-7.18 82.15-7.5 82.84-7.5L82.84-7.5Q83.77-7.5 84.25-6.83L84.25-6.83 86.5-4.05Q85.3-2.68 83.91-1.81 82.52-0.95 81.06-0.46 79.59 0.03 78.13 0.21 76.67 0.4 75.34 0.4L75.34 0.4Q72.62 0.4 70.23-0.49 67.84-1.38 66.06-3.13 64.27-4.88 63.23-7.48 62.2-10.08 62.2-13.53L62.2-13.53Q62.2-16.13 63.08-18.45 63.97-20.78 65.63-22.53 67.3-24.28 69.66-25.3 72.02-26.33 75-26.33ZM75.15-20.98L75.15-20.98Q72.92-20.98 71.67-19.71 70.42-18.45 70.02-16.07L70.02-16.07 79.7-16.07Q79.7-17 79.46-17.88 79.22-18.75 78.68-19.44 78.15-20.13 77.27-20.55 76.4-20.98 75.15-20.98ZM98.84 0L91.09 0 91.09-25.93 95.89-25.93Q96.62-25.93 97.11-25.6 97.59-25.28 97.79-24.63L97.79-24.63 98.24-23.13Q98.99-23.83 99.79-24.43 100.59-25.03 101.5-25.44 102.42-25.85 103.48-26.09 104.54-26.33 105.79-26.33L105.79-26.33Q107.92-26.33 109.56-25.59 111.19-24.85 112.32-23.54 113.44-22.23 114.02-20.41 114.59-18.6 114.59-16.48L114.59-16.48 114.59 0 106.84 0 106.84-16.48Q106.84-18.38 105.97-19.44 105.09-20.5 103.39-20.5L103.39-20.5Q102.12-20.5 100.99-19.95 99.87-19.4 98.84-18.48L98.84-18.48 98.84 0ZM129.19 0.4L129.19 0.4Q127.34 0.4 125.93-0.14 124.52-0.68 123.55-1.66 122.59-2.65 122.09-4.05 121.59-5.45 121.59-7.18L121.59-7.18 121.59-20.58 119.39-20.58Q118.79-20.58 118.37-20.96 117.94-21.35 117.94-22.1L117.94-22.1 117.94-25.13 122.06-25.93 123.59-32.25Q123.89-33.45 125.29-33.45L125.29-33.45 129.34-33.45 129.34-25.88 135.64-25.88 135.64-20.58 129.34-20.58 129.34-7.7Q129.34-6.8 129.78-6.21 130.22-5.63 131.04-5.63L131.04-5.63Q131.47-5.63 131.75-5.71 132.04-5.8 132.25-5.91 132.47-6.03 132.65-6.11 132.84-6.2 133.09-6.2L133.09-6.2Q133.44-6.2 133.65-6.04 133.87-5.88 134.09-5.53L134.09-5.53 136.44-1.85Q134.94-0.73 133.06-0.16 131.19 0.4 129.19 0.4ZM151.19-26.33L151.19-26.33Q153.76-26.33 155.9-25.53 158.04-24.73 159.58-23.2 161.11-21.68 161.98-19.46 162.84-17.25 162.84-14.45L162.84-14.45Q162.84-13.58 162.76-13.03 162.69-12.48 162.49-12.15 162.29-11.83 161.95-11.7 161.61-11.58 161.09-11.58L161.09-11.58 146.14-11.58Q146.51-8.33 148.11-6.86 149.71-5.4 152.24-5.4L152.24-5.4Q153.59-5.4 154.56-5.73 155.54-6.05 156.3-6.45 157.06-6.85 157.7-7.18 158.34-7.5 159.04-7.5L159.04-7.5Q159.96-7.5 160.44-6.83L160.44-6.83 162.69-4.05Q161.49-2.68 160.1-1.81 158.71-0.95 157.25-0.46 155.79 0.03 154.33 0.21 152.86 0.4 151.54 0.4L151.54 0.4Q148.81 0.4 146.43-0.49 144.04-1.38 142.25-3.13 140.46-4.88 139.43-7.48 138.39-10.08 138.39-13.53L138.39-13.53Q138.39-16.13 139.28-18.45 140.16-20.78 141.83-22.53 143.49-24.28 145.85-25.3 148.21-26.33 151.19-26.33ZM151.34-20.98L151.34-20.98Q149.11-20.98 147.86-19.71 146.61-18.45 146.21-16.07L146.21-16.07 155.89-16.07Q155.89-17 155.65-17.88 155.41-18.75 154.88-19.44 154.34-20.13 153.46-20.55 152.59-20.98 151.34-20.98ZM187.09-36.43L201.19 0 194.64 0Q193.54 0 192.82-0.51 192.11-1.03 191.84-1.83L191.84-1.83 189.69-8.18 175.84-8.18 173.69-1.83Q173.44-1.13 172.71-0.56 171.99 0 170.94 0L170.94 0 164.34 0 178.44-36.43 187.09-36.43ZM181.14-23.85L177.79-13.93 187.74-13.93 184.39-23.9Q184.06-24.85 183.62-26.14 183.19-27.43 182.76-28.93L182.76-28.93Q182.36-27.4 181.94-26.1 181.51-24.8 181.14-23.85L181.14-23.85ZM213.38-36.43L213.38 0 204.88 0 204.88-36.43 213.38-36.43Z" opacity="1" transform="matrix(1,0,0,1,0,0)" fill="#374151" class="wordmark-text-0" data-fill-palette-color="primary" id="text-0"></path></svg></g></svg></g></svg></g></svg></g><g><svg viewBox="0 0 168.55349631214426 168.55349631214426" height="168.55349631214426" width="168.55349631214426"><g><svg></svg></g><g id="icon-0"><svg viewBox="0 0 168.55349631214426 168.55349631214426" height="168.55349631214426" width="168.55349631214426"><g><path d="M0 84.277c0-46.545 37.732-84.277 84.277-84.277 46.545 0 84.277 37.732 84.277 84.277 0 46.545-37.732 84.277-84.277 84.277-46.545 0-84.277-37.732-84.277-84.277zM84.277 162.311c43.097 0 78.034-34.937 78.034-78.034 0-43.097-34.937-78.034-78.034-78.034-43.097 0-78.034 34.937-78.034 78.034 0 43.097 34.937 78.034 78.034 78.034z" data-fill-palette-color="accent" fill="#374151" stroke="transparent"></path></g><g transform="matrix(1,0,0,1,35.505949115053156,60.07850932402529)"><svg viewBox="0 0 97.54159808203795 48.39647766409367" height="48.39647766409367" width="97.54159808203795"><g><svg xmlns="http://www.w3.org/2000/svg" xmlns:xlink="http://www.w3.org/1999/xlink" version="1.1" x="0" y="0" viewBox="1.9671138525009155 26.16699981689453 96.06732940673828 47.665000915527344" enable-background="new 0 0 100 100" xml:space="preserve" height="48.39647766409367" width="97.54159808203795" class="icon-s-0" data-fill-palette-color="accent" id="s-0"><path fill="#374151" d="M97.953 54.436c-0.163-0.784-0.787-1.427-1.624-1.566-0.698-0.116-10.651-1.764-22.177-3.11C68.949 37.733 61.565 26.167 50 26.167c-11.565 0-18.948 11.566-24.152 23.592-11.525 1.346-21.479 2.994-22.177 3.11-0.841 0.141-1.466 0.788-1.626 1.576-0.273 0.963 0.188 2.004 1.127 2.423 0.099 0.044 9.971 4.552 14.627 15.708 0.317 0.761 1.061 1.256 1.885 1.256s1.568-0.495 1.885-1.256c0.881-2.11 1.805-4.706 2.875-7.713 1.245-3.496 2.652-7.446 4.273-11.395C36.111 52.648 43.884 52 50 52c6.115 0 13.888 0.648 21.281 1.469 1.622 3.949 3.029 7.9 4.274 11.397 1.07 3.005 1.994 5.601 2.874 7.71 0.317 0.761 1.062 1.256 1.886 1.256s1.567-0.495 1.886-1.256c4.656-11.156 14.527-15.664 14.623-15.707C97.771 56.452 98.234 55.403 97.953 54.436zM60 48.401c-1.707-0.12-3.384-0.218-5-0.287V31.313c1.787 0.771 3.45 1.935 5 3.401V48.401zM40 34.715c1.549-1.467 3.213-2.629 5-3.401v16.801c-1.616 0.068-3.293 0.167-5 0.287V34.715zM9.582 55.993c2.279-0.344 5.167-0.764 8.418-1.201v9.743C15.255 60.61 12.117 57.826 9.582 55.993zM20.595 63.493c-0.204 0.572-0.402 1.129-0.595 1.669V54.526c1.325-0.173 2.695-0.347 4.099-0.519C22.798 57.312 21.643 60.552 20.595 63.493zM38 36.841V48.55c-2.46 0.194-4.966 0.429-7.45 0.688C32.67 44.616 35.125 40.233 38 36.841zM47 48.045V30.637c0.967-0.242 1.963-0.383 3-0.383 1.036 0 2.033 0.142 3 0.383v17.409C51.97 48.017 50.964 48 50 48S48.031 48.017 47 48.045zM62 48.55V36.841c2.875 3.392 5.33 7.774 7.45 12.397C66.966 48.979 64.461 48.744 62 48.55zM75.901 54.008c1.403 0.172 2.773 0.346 4.099 0.519v10.638c-0.193-0.54-0.392-1.097-0.595-1.668C78.358 60.554 77.202 57.312 75.901 54.008zM82 64.535v-9.743c3.251 0.438 6.14 0.857 8.418 1.201C87.883 57.826 84.744 60.61 82 64.535z" data-fill-palette-color="accent"></path></svg></g></svg></g></svg></g></svg></g></svg></g><defs></defs></svg><rect width="395.52" height="111.71401705921376" fill="none" stroke="none" visibility="hidden"></rect></g></svg></g></svg>